HIERARCHY
ROOT Hips
{
	OFFSET 0.00 0.00 0.00
	CHANNELS 6 Xposition Yposition Zposition Xrotation Yrotation Zrotation
	JOINT Spine
	{
		OFFSET 0.00000 1.75157 2.62736
		CHANNELS 3 Xrotation Yrotation Zrotation
		JOINT Spine1
		{
			OFFSET 0.00000 0.60831 3.44992
			CHANNELS 3 Xrotation Yrotation Zrotation
			JOINT Spine2
			{
				OFFSET 0.00000 0.30532 3.48981
				CHANNELS 3 Xrotation Yrotation Zrotation
				JOINT Spine3
				{
					OFFSET 0.00000 0.00000 3.50314
					CHANNELS 3 Xrotation Yrotation Zrotation
					JOINT Neck
					{
						OFFSET 0.00000 -1.31367 9.19575
						CHANNELS 3 Xrotation Yrotation Zrotation
						JOINT Head
						{
							OFFSET 0.00000 -0.83643 4.74364
							CHANNELS 3 Xrotation Yrotation Zrotation
							End Site
							{
								OFFSET 0.00000 0.00001 5.67071
							}
						}
					}
					JOINT RightShoulder
					{
						OFFSET -1.05974 -1.76624 5.72262
						CHANNELS 3 Xrotation Yrotation Zrotation
						JOINT RightArm
						{
							OFFSET -5.26340 0.00000 0.00000
							CHANNELS 3 Xrotation Yrotation Zrotation
							JOINT RightForeArm
							{
								OFFSET -10.14667 0.00000 0.00000
								CHANNELS 3 Xrotation Yrotation Zrotation
								JOINT RightHand
								{
									OFFSET -8.53343 0.00000 0.00000
									CHANNELS 3 Xrotation Yrotation Zrotation
									JOINT RightHandEnd
									{
										OFFSET -2.46135 0.00000 0.00000
										CHANNELS 3 Xrotation Yrotation Zrotation
										End Site
										{
											OFFSET -2.46135 0.00000 0.00000
										}
									}
									JOINT RightHandThumb1
									{
										OFFSET -0.98454 -1.64090 -0.65636
										CHANNELS 3 Yrotation Xrotation Zrotation
										End Site
										{
											OFFSET -2.37748 -0.63704 0.00000
										}
									}
								}
							}
						}
					}
					JOINT LeftShoulder
					{
						OFFSET 1.05974 -1.76624 5.72262
						CHANNELS 3 Xrotation Yrotation Zrotation
						JOINT LeftArm
						{
							OFFSET 5.26340 0.00000 0.00000
							CHANNELS 3 Xrotation Yrotation Zrotation
							JOINT LeftForeArm
							{
								OFFSET 10.14667 0.00000 0.00000
								CHANNELS 3 Xrotation Yrotation Zrotation
								JOINT LeftHand
								{
									OFFSET 8.53343 0.00000 0.00000
									CHANNELS 3 Xrotation Yrotation Zrotation
									JOINT LeftHandEnd
									{
										OFFSET 2.46135 0.00000 0.00000
										CHANNELS 3 Xrotation Yrotation Zrotation
										End Site
										{
											OFFSET 2.46135 0.00000 0.00000
										}
									}
									JOINT LeftHandThumb1
									{
										OFFSET 0.98454 -1.64090 -0.65636
										CHANNELS 3 Yrotation Xrotation Zrotation
										End Site
										{
											OFFSET 2.37748 -0.63704 0.00000
										}
									}
								}
							}
						}
					}
				}
			}
		}
	}
	JOINT RightUpLeg
	{
		OFFSET -3.14391 0.00000 -0.91845
		CHANNELS 3 Xrotation Yrotation Zrotation
		JOINT RightLeg
		{
			OFFSET 0.00000 0.00000 -14.43197
			CHANNELS 3 Xrotation Yrotation Zrotation
			JOINT RightFoot
			{
				OFFSET 0.00000 0.00000 -14.31693
				CHANNELS 3 Xrotation Yrotation Zrotation
				JOINT RightToeBase
				{
					OFFSET 0.00000 -4.51635 -1.64382
					CHANNELS 3 Xrotation Yrotation Zrotation
					End Site
					{
						OFFSET 0.00000 -2.54339 -0.00000
					}
				}
			}
		}
	}
	JOINT LeftUpLeg
	{
		OFFSET 3.14391 0.00000 -0.91845
		CHANNELS 3 Xrotation Yrotation Zrotation
		JOINT LeftLeg
		{
			OFFSET 0.00000 0.00000 -14.43197
			CHANNELS 3 Xrotation Yrotation Zrotation
			JOINT LeftFoot
			{
				OFFSET 0.00000 0.00000 -14.31693
				CHANNELS 3 Xrotation Yrotation Zrotation
				JOINT LeftToeBase
				{
					OFFSET 0.00000 -4.51635 -1.64382
					CHANNELS 3 Xrotation Yrotation Zrotation
					End Site
					{
						OFFSET 0.00000 -2.54339 -0.00000
					}
				}
			}
		}
	}
}
MOTION
Frames: 16
Frame Time: 0.008342
 -24.9636 -26.3783 30.9509 5.7148 1.3978 77.8033 0.0556 2.2566 -0.0209 -0.1636 0.2202 0.1933 1.4195 0.1796 2.5099 1.0845 -0.7564 1.5976 -6.5360 -3.5285 1.4676 0.2233 0.6793 4.4308 2.6131 -14.0943 21.7405 -1.4607 -3.6304 35.5576 -0.0000 0.0000 48.1376 48.3610 35.6630 -12.5535 0.0000 -0.0000 0.0000 0.0000 -0.0000 -0.0000 0.1061 2.8427 -12.6195 -43.3561 11.8735 12.1703 -0.0001 -0.0001 -93.3946 -32.4772 -15.6084 1.1045 0.0000 -0.0000 0.0000 -0.0000 -0.0000 -0.0000 -15.5588 12.2091 -14.3546 65.9405 0.0000 0.0000 6.3218 -4.4752 -15.8173 -25.3337 0.0000 -0.0000 -3.5674 8.6739 14.2973 13.3602 0.0000 0.0000 -13.1863 -2.5091 1.2280 -0.4062 0.0000 -0.0000
 -24.7841 -26.4207 30.9611 5.5300 0.9860 76.9551 0.1877 2.2802 -0.0468 -0.0752 0.1902 0.1846 1.4331 -0.0098 2.5250 1.1144 -0.8287 1.6680 -6.2245 -3.5376 1.8846 0.2977 0.7609 4.8985 2.4219 -13.8966 21.8529 -1.2616 -3.0316 35.7125 -0.0000 0.0000 47.9965 47.7471 35.1868 -11.8792 -0.0000 0.0000 -0.0000 0.0000 -0.0000 -0.0000 0.2317 2.8619 -12.5118 -43.8666 11.6126 12.6911 -0.0001 -0.0001 -94.1612 -32.6775 -15.9400 1.1826 0.0000 -0.0000 0.0000 0.0000 0.0000 0.0000 -16.7913 12.0600 -13.1959 66.5837 0.0000 0.0000 4.5615 -4.0294 -15.9504 -25.5027 0.0000 -0.0000 -2.3966 8.7047 14.5764 12.5387 0.0000 0.0000 -13.1442 -2.5973 1.7221 -0.4803 0.0000 -0.0000
 -24.5969 -26.4664 30.9734 5.3253 0.5790 76.0322 0.3039 2.2820 -0.0679 0.0088 0.1520 0.1752 1.4468 -0.1916 2.5743 1.1421 -0.8982 1.7422 -5.8750 -3.5405 2.3216 0.4002 0.8519 5.3765 2.2215 -13.6731 21.9592 -1.0355 -2.5071 35.9092 -0.0000 0.0000 47.8454 47.1542 34.6688 -11.2814 -0.0000 0.0000 -0.0000 0.0000 -0.0000 -0.0000 0.3442 2.9266 -12.3598 -44.3123 11.3410 13.2669 -0.0001 -0.0001 -94.9075 -32.8253 -16.2302 1.2578 -0.0000 0.0000 -0.0000 0.0000 0.0000 -0.0000 -17.9499 11.8296 -12.0211 66.9319 0.0000 0.0000 2.9275 -3.6261 -15.8636 -25.8334 0.0000 -0.0000 -1.1673 8.7366 15.0089 11.6309 0.0000 0.0000 -13.0430 -2.6446 2.1417 -0.5756 0.0000 -0.0000
 -24.4026 -26.5150 30.9865 5.1053 0.1808 75.0452 0.4047 2.2629 -0.0856 0.0892 0.1095 0.1660 1.4573 -0.3641 2.6525 1.1661 -0.9643 1.8171 -5.4866 -3.5376 2.7736 0.5196 0.9531 5.8626 2.0064 -13.4217 22.0608 -0.7721 -2.0523 36.1449 -0.0000 0.0000 47.6890 46.5819 34.1143 -10.7611 0.0000 -0.0000 0.0000 -0.0000 -0.0000 0.0000 0.4437 3.0291 -12.1640 -44.6950 11.0601 13.8987 -0.0001 -0.0001 -95.6395 -32.9424 -16.4966 1.3248 -0.0000 -0.0000 -0.0000 0.0000 -0.0000 0.0000 -19.0318 11.5291 -10.8410 66.9993 0.0000 0.0000 1.4341 -3.3118 -15.5885 -26.2600 0.0000 -0.0000 0.1106 8.7778 15.6157 10.6466 0.0000 0.0000 -12.8896 -2.6408 2.4510 -0.6953 0.0000 -0.0000
 -24.2030 -26.5661 30.9987 4.8739 -0.1959 74.0091 0.4877 2.2222 -0.1030 0.1566 0.0653 0.1555 1.4687 -0.5266 2.7511 1.1861 -1.0278 1.8944 -5.0619 -3.5277 3.2374 0.6424 1.0655 6.3523 1.7777 -13.1434 22.1579 -0.4653 -1.6471 36.4248 -0.0000 0.0000 47.5178 46.0390 33.5513 -10.3216 0.0000 -0.0000 0.0000 -0.0000 0.0000 -0.0000 0.5190 3.1621 -11.9368 -45.0126 10.7628 14.6007 -0.0001 -0.0001 -96.3659 -33.0608 -16.7598 1.3830 -0.0000 0.0000 0.0000 0.0000 0.0000 0.0000 -20.0453 11.1667 -9.6705 66.8042 0.0000 0.0000 0.0798 -3.1190 -15.1714 -26.7085 0.0000 -0.0000 1.4126 8.8329 16.4037 9.6031 0.0000 0.0000 -12.6960 -2.5807 2.6234 -0.8384 0.0000 -0.0000
 -23.9994 -26.6198 31.0087 4.6293 -0.5507 72.9388 0.5562 2.1600 -0.1216 0.2227 0.0167 0.1488 1.4683 -0.6748 2.8586 1.2042 -1.0890 1.9689 -4.6060 -3.5135 3.7103 0.7578 1.1906 6.8434 1.5254 -12.8371 22.2599 -0.1078 -1.2911 36.7313 -0.0000 0.0000 47.3468 45.5142 32.9835 -9.9394 0.0000 -0.0000 -0.0000 -0.0000 0.0000 0.0000 0.5870 3.3143 -11.6643 -45.2880 10.4625 15.3535 -0.0001 -0.0001 -97.0838 -33.2087 -17.0491 1.4345 -0.0000 -0.0000 0.0000 -0.0000 -0.0000 0.0000 -20.9838 10.7463 -8.5233 66.3633 0.0000 0.0000 -1.1502 -3.0651 -14.6682 -27.1136 0.0000 -0.0000 2.7268 8.9033 17.3587 8.5203 0.0000 0.0000 -12.4764 -2.4603 2.6517 -1.0031 0.0000 -0.0000
 -23.7937 -26.6755 31.0152 4.3782 -0.8741 71.8484 0.6075 2.0765 -0.1411 0.2862 -0.0276 0.1433 1.4562 -0.8154 2.9737 1.2202 -1.1455 2.0396 -4.1262 -3.4949 4.1839 0.8557 1.3279 7.3332 1.2538 -12.5118 22.3669 0.2993 -0.9546 37.0599 -0.0000 0.0000 47.1727 45.0048 32.4386 -9.5966 0.0000 0.0000 0.0000 0.0000 -0.0000 -0.0000 0.6386 3.4740 -11.3658 -45.5275 10.1521 16.1763 -0.0001 -0.0001 -97.7998 -33.4255 -17.3868 1.4815 0.0000 0.0000 -0.0000 -0.0000 0.0000 -0.0000 -21.8584 10.2798 -7.4105 65.6992 0.0000 0.0000 -2.2784 -3.1481 -14.1329 -27.4189 0.0000 -0.0000 4.0273 8.9966 18.4477 7.4191 0.0000 0.0000 -12.2429 -2.2831 2.5500 -1.1846 0.0000 -0.0000
 -23.5883 -26.7324 31.0170 4.1303 -1.1535 70.7551 0.6394 1.9804 -0.1653 0.3325 -0.0696 0.1351 1.4416 -0.9478 3.0923 1.2368 -1.2023 2.1105 -3.6358 -3.4653 4.6557 0.9297 1.4740 7.8147 0.9607 -12.1637 22.4826 0.7500 -0.6267 37.3966 -0.0000 0.0000 47.0032 44.5013 31.9298 -9.2728 -0.0000 0.0000 -0.0000 0.0000 -0.0000 -0.0000 0.6824 3.6393 -11.0449 -45.7545 9.8327 17.0589 -0.0001 -0.0001 -98.5099 -33.7310 -17.7971 1.5362 -0.0000 -0.0000 -0.0000 0.0000 -0.0000 -0.0000 -22.6869 9.7815 -6.3455 64.8343 0.0000 0.0000 -3.3302 -3.3493 -13.6137 -27.5941 0.0000 -0.0000 5.2763 9.1170 19.6098 6.3331 0.0000 0.0000 -12.0102 -2.0599 2.3583 -1.3774 0.0000 -0.0000
 -23.3844 -26.7909 31.0136 3.8850 -1.3905 69.6674 0.6564 1.8745 -0.1926 0.3668 -0.1190 0.1297 1.4219 -1.0651 3.2137 1.2542 -1.2572 2.1796 -3.1439 -3.4294 5.1148 0.9767 1.6282 8.2874 0.6501 -11.8114 22.6040 1.2385 -0.2811 37.7327 -0.0000 0.0000 46.8396 43.9916 31.4751 -8.9365 -0.0000 -0.0000 -0.0000 -0.0000 -0.0000 0.0000 0.7278 3.8078 -10.7127 -45.9878 9.4942 17.9920 -0.0001 -0.0001 -99.2084 -34.1513 -18.2947 1.6011 0.0000 0.0000 0.0000 0.0000 0.0000 0.0000 -23.4666 9.2532 -5.3334 63.7823 0.0000 0.0000 -4.3294 -3.6385 -13.1512 -27.6298 0.0000 -0.0000 6.4619 9.2602 20.7987 5.2835 0.0000 0.0000 -11.7901 -1.8029 2.1125 -1.5755 0.0000 -0.0000
 -23.1836 -26.8499 31.0049 3.6560 -1.5814 68.5973 0.6587 1.7707 -0.2185 0.3769 -0.1743 0.1206 1.4072 -1.1699 3.3368 1.2750 -1.3122 2.2494 -2.6654 -3.3842 5.5586 0.9991 1.7856 8.7443 0.3297 -11.4543 22.7341 1.7475 0.0926 38.0526 -0.0000 0.0000 46.6862 43.4577 31.0956 -8.5526 -0.0000 -0.0000 -0.0000 -0.0000 -0.0000 0.0000 0.7737 3.9742 -10.3774 -46.2448 9.1377 18.9768 -0.0001 -0.0001 -99.8903 -34.6953 -18.8824 1.6817 0.0000 -0.0000 0.0000 0.0000 -0.0000 0.0000 -24.2097 8.7160 -4.3815 62.5620 0.0000 0.0000 -5.2966 -3.9763 -12.7622 -27.5408 0.0000 -0.0000 7.5593 9.4320 21.9385 4.2967 0.0000 0.0000 -11.5912 -1.5320 1.8770 -1.7749 0.0000 -0.0000
 -22.9870 -26.9098 30.9912 3.4435 -1.7219 67.5533 0.6361 1.6590 -0.2399 0.3724 -0.2041 0.1155 1.3985 -1.2917 3.4551 1.3016 -1.3634 2.3164 -2.2153 -3.3292 5.9852 1.0045 1.9425 9.1817 0.0056 -11.1008 22.8748 2.2605 0.5009 38.3428 -0.0000 0.0000 46.5502 42.8908 30.7946 -8.0995 -0.0000 0.0000 -0.0000 0.0000 -0.0000 -0.0000 0.8325 4.1425 -10.0332 -46.5502 8.7663 19.9911 -0.0001 -0.0001 -100.5453 -35.3641 -19.5536 1.7797 -0.0000 0.0000 -0.0000 -0.0000 -0.0000 0.0000 -24.9186 8.1701 -3.4951 61.1802 0.0000 0.0000 -6.2398 -4.3230 -12.4536 -27.3603 0.0000 -0.0000 8.5484 9.6179 22.9714 3.4016 0.0000 0.0000 -11.4260 -1.2708 1.7060 -1.9733 0.0000 -0.0000
 -22.7937 -26.9718 30.9736 3.2379 -1.8296 66.5424 0.6050 1.5506 -0.2556 0.3546 -0.2535 0.1087 1.4002 -1.3902 3.5765 1.3355 -1.4147 2.3842 -1.8045 -3.2723 6.3861 1.0013 2.0949 9.5956 -0.3098 -10.7646 23.0187 2.7590 0.9545 38.5942 -0.0000 0.0000 46.4345 42.2791 30.5819 -7.5566 0.0000 0.0000 0.0000 0.0000 0.0000 0.0000 0.9061 4.3104 -9.6908 -46.9136 8.3711 21.0235 -0.0001 -0.0001 -101.1622 -36.1470 -20.2876 1.8947 -0.0000 0.0000 0.0000 -0.0000 -0.0000 0.0000 -25.5633 7.6163 -2.6797 59.6389 0.0000 0.0000 -7.1593 -4.6417 -12.2139 -27.1329 0.0000 -0.0000 9.4461 9.8027 23.8570 2.6131 0.0000 0.0000 -11.3003 -1.0354 1.6396 -2.1720 0.0000 -0.0000
 -22.6033 -27.0362 30.9531 3.0387 -1.9192 65.5694 0.5743 1.4470 -0.2622 0.3280 -0.3106 0.1023 1.4142 -1.4762 3.6998 1.3762 -1.4637 2.4543 -1.4405 -3.2143 6.7563 0.9991 2.2355 9.9841 -0.6037 -10.4436 23.1623 3.2212 1.4419 38.7974 -0.0000 0.0000 46.3432 41.6078 30.4634 -6.9047 0.0000 -0.0000 0.0000 0.0000 -0.0000 -0.0000 0.9988 4.4815 -9.3513 -47.3429 7.9497 22.0568 -0.0001 -0.0001 -101.7301 -37.0298 -21.0523 2.0227 0.0000 -0.0000 0.0000 -0.0000 0.0000 0.0000 -26.1252 7.0649 -1.9333 57.9469 0.0000 0.0000 -8.0463 -4.9072 -12.0141 -26.9089 0.0000 -0.0000 10.2642 9.9812 24.5662 1.9432 0.0000 0.0000 -11.2151 -0.8403 1.7093 -2.3770 0.0000 -0.0000
 -22.4156 -27.1029 30.9305 2.8545 -1.9921 64.6382 0.5385 1.3528 -0.2565 0.2940 -0.3717 0.0952 1.4446 -1.5486 3.8309 1.4229 -1.5096 2.5227 -1.1321 -3.1589 7.0966 1.0089 2.3599 10.3407 -0.8673 -10.1451 23.2997 3.6325 1.9603 38.9494 -0.0000 0.0000 46.2765 40.8804 30.4384 -6.1444 0.0000 0.0000 0.0000 -0.0000 -0.0000 0.0000 1.1109 4.6560 -9.0123 -47.8428 7.5043 23.0752 -0.0001 -0.0001 -102.2388 -37.9903 -21.8062 2.1539 -0.0000 -0.0000 -0.0000 -0.0000 0.0000 -0.0000 -26.6068 6.5294 -1.2501 56.1193 0.0000 0.0000 -8.8812 -5.1088 -11.8150 -26.7332 0.0000 -0.0000 10.9939 10.1511 25.0808 1.4102 0.0000 0.0000 -11.1728 -0.7012 1.9381 -2.5961 0.0000 -0.0000
 -22.2297 -27.1723 30.9069 2.6832 -2.0584 63.7539 0.5015 1.2693 -0.2388 0.2569 -0.4373 0.0887 1.4932 -1.6048 3.9701 1.4742 -1.5515 2.5907 -0.8825 -3.1089 7.4034 1.0376 2.4635 10.6634 -1.0921 -9.8702 23.4266 3.9793 2.4952 39.0435 -0.0000 0.0000 46.2402 40.0929 30.4989 -5.2781 0.0000 -0.0000 0.0000 0.0000 0.0000 0.0000 1.2430 4.8379 -8.6705 -48.4100 7.0361 24.0558 -0.0001 -0.0001 -102.6789 -38.9995 -22.5041 2.2831 -0.0000 0.0000 -0.0000 -0.0000 -0.0000 0.0000 -26.9920 6.0167 -0.6253 54.1702 0.0000 0.0000 -9.6414 -5.2512 -11.5774 -26.6414 0.0000 -0.0000 11.6445 10.3047 25.4044 1.0249 0.0000 0.0000 -11.1735 -0.6244 2.3251 -2.8389 0.0000 -0.0000
 -22.0448 -27.2449 30.8831 2.5245 -2.1271 62.9217 0.4664 1.1974 -0.2095 0.2204 -0.5063 0.0832 1.5597 -1.6418 4.1181 1.5287 -1.5887 2.6566 -0.6933 -3.0663 7.6780 1.0914 2.5418 10.9484 -1.2732 -9.6178 23.5397 4.2543 3.0300 39.0796 -0.0000 0.0000 46.2332 39.2569 30.6436 -4.3203 0.0000 0.0000 -0.0000 0.0000 -0.0000 -0.0000 1.3880 5.0283 -8.3232 -49.0304 6.5469 24.9839 -0.0001 -0.0001 -103.0448 -40.0335 -23.1005 2.3987 0.0000 -0.0000 0.0000 -0.0000 0.0000 0.0000 -27.2694 5.5338 -0.0510 52.1220 0.0000 0.0000 -10.3051 -5.3522 -11.2669 -26.6516 0.0000 -0.0000 12.2248 10.4384 25.5541 0.7944 0.0000 0.0000 -11.2150 -0.6098 2.8538 -3.1147 0.0000 -0.0000
